<svg id="Layer_1" data-name="Layer 1" xmlns="http://www.w3.org/2000/svg" viewBox="0 0 150 150"><defs><style>.cls-1{fill:#fff;}</style></defs><polygon class="cls-1" points="65.63 101.79 36.49 101.79 36.49 83.88 47.12 83.88 47.12 91.16 59.62 91.16 65.63 101.79"/><path class="cls-1" d="M59.8,88.86l7.26,12.84,0,0Z"/><path class="cls-1" d="M144.81,47.52l-8.35,9.21a64.11,64.11,0,1,0-73.69,81.2v0l6.68,11.81s0,0,0,0A75,75,0,1,1,144.81,47.52Z"/><path class="cls-1" d="M145.71,49.94l-8.52,9.4-.24-.85a64.18,64.18,0,0,1-38.67,76.25s0,0,0,0l-18.6-32.91s0,0,0,0h33.82a0,0,0,0,0,0,0V92.25a0,0,0,0,0,0,0h-8.9s0,0,0,0V57.83s0,0,0,0h8.9s0,0,0,0V48.27a0,0,0,0,0,0,0H61.26c-.4,0-.81,0-1.21,0H36.51l0,0V82.38a0,0,0,0,0,0,0H56.15l3.65,6.45,7.28,12.88h0l0,0L87.5,137.85s0,0,0,0A64.77,64.77,0,0,1,76,139.09s0,0,0,0l6,10.54h0a75.06,75.06,0,0,0,63.76-99.74ZM64.83,71.12a6.6,6.6,0,0,1-5.16,2.18H47.12V57.85h11A9,9,0,0,1,64.41,60a7.26,7.26,0,0,1,2.37,5.66A7.92,7.92,0,0,1,64.83,71.12Zm9.48,21.11h0l-3.73-6.46-2.86-4.94v0h0l.69-.33.23-.13.12-.06.33-.18c.35-.2.68-.41,1-.62l.35-.24,0,0,.34-.24.33-.25,0,0,.32-.26c.25-.21.5-.42.73-.64l.16-.15.22-.21c.07-.08.15-.15.23-.23L73,77l.2-.21.13-.14c.14-.15.27-.31.41-.47l.07-.09L74,76l.15-.18.29-.39.11-.15.21-.28c.08-.12.16-.23.23-.35a16.43,16.43,0,0,0,2.76-9.34c0-.12,0-.25,0-.37h0c0-.12,0-.25,0-.37s0-.25,0-.37h0c0-.12,0-.24,0-.36,0-.31-.06-.61-.1-.9a3.32,3.32,0,0,0-.06-.44c0-.35-.12-.7-.19-1,0-.1,0-.19-.07-.29l0-.09c0-.08,0-.17-.07-.26s0-.1,0-.15c-.08-.31-.18-.61-.28-.91,0-.1-.07-.21-.11-.31a1.8,1.8,0,0,0-.08-.21,1.43,1.43,0,0,0-.08-.22l-.27-.64-.06-.13,0-.05c0-.08-.07-.16-.11-.23h0v0H86.55v0h7V92.23H74.31Z"/><path class="cls-1" d="M74.79,150c-.87,0-1.74,0-2.6-.05l-6.51-11.52c.91.13,1.83.25,2.76.34Z"/><path class="cls-1" d="M79.91,149.84c-.84.06-1.67.1-2.51.12l-6.21-11c.88,0,1.75.08,2.64.1Z"/></svg>